name Walk10.mot
datacolumns 19
datarows 27
range 2.23000000 2.25600000
endheader

                time	   L_ground_force_vx	   L_ground_force_vy	   L_ground_force_vz	   L_ground_force_px	   L_ground_force_py	   L_ground_force_pz	   R_ground_force_vx	   R_ground_force_vy	   R_ground_force_vz	   R_ground_force_px	   R_ground_force_py	   R_ground_force_pz	   L_ground_torque_x	   L_ground_torque_y	   L_ground_torque_z	   R_ground_torque_x	   R_ground_torque_y	   R_ground_torque_z	
          2.23000000	          1.58722316	          5.44718674	         -0.28104887	          0.21786798	          0.00000000	          0.10813244	          0.00000000	          0.00000000	          0.00000000	         -0.00000000	          0.00000000	          0.00000000	          0.00000000	          0.07165113	          0.00000000	          0.00000000	          0.00000000	          0.00000000	
          2.23100000	          0.89329394	          3.76572483	         -0.22289257	          0.20534667	          0.00000000	          0.10194705	          0.00000000	          0.00000000	          0.00000000	         -0.00000000	          0.00000000	          0.00000000	          0.00000000	          0.06776005	          0.00000000	          0.00000000	          0.00000000	          0.00000000	
          2.23200000	          0.25498992	          2.21299801	         -0.16883870	          0.19311402	          0.00000000	          0.09590233	          0.00000000	          0.00000000	          0.00000000	         -0.00000000	          0.00000000	          0.00000000	          0.00000000	          0.06394377	          0.00000000	          0.00000000	          0.00000000	          0.00000000	
          2.23300000	         -0.33000638	          0.78392810	         -0.11874271	          0.18119171	          0.00000000	          0.09000917	          0.00000000	          0.00000000	          0.00000000	         -0.00000000	          0.00000000	          0.00000000	          0.00000000	          0.06021033	          0.00000000	          0.00000000	          0.00000000	          0.00000000	
          2.23400000	         -0.86401683	         -0.52659863	         -0.07245740	          0.16959840	          0.00000000	          0.08427694	          0.00000000	          0.00000000	          0.00000000	         -0.00000000	          0.00000000	          0.00000000	          0.00000000	          0.05656680	          0.00000000	          0.00000000	          0.00000000	          0.00000000	
          2.23500000	         -1.34935858	         -1.72370901	         -0.02983365	          0.15834993	          0.00000000	          0.07871363	          0.00000000	          0.00000000	          0.00000000	         -0.00000000	          0.00000000	          0.00000000	          0.00000000	          0.05301931	          0.00000000	          0.00000000	          0.00000000	          0.00000000	
          2.23600000	         -1.78833564	         -2.81252259	          0.00927878	          0.14745948	          0.00000000	          0.07332589	          0.00000000	          0.00000000	          0.00000000	         -0.00000000	          0.00000000	          0.00000000	          0.00000000	          0.04957309	          0.00000000	          0.00000000	          0.00000000	          0.00000000	
          2.23700000	         -2.18323133	         -3.79813284	          0.04503065	          0.13693777	          0.00000000	          0.06811916	          0.00000000	          0.00000000	          0.00000000	         -0.00000000	          0.00000000	          0.00000000	          0.00000000	          0.04623256	          0.00000000	          0.00000000	          0.00000000	          0.00000000	
          2.23800000	         -2.53630143	         -4.68559014	          0.07757258	          0.12679320	          0.00000000	          0.06309773	          0.00000000	          0.00000000	          0.00000000	         -0.00000000	          0.00000000	          0.00000000	          0.00000000	          0.04300135	          0.00000000	          0.00000000	          0.00000000	          0.00000000	
          2.23900000	         -2.84976794	         -5.47988637	          0.10705454	          0.11703205	          0.00000000	          0.05826480	          0.00000000	          0.00000000	          0.00000000	         -0.00000000	          0.00000000	          0.00000000	          0.00000000	          0.03988238	          0.00000000	          0.00000000	          0.00000000	          0.00000000	
          2.24000000	         -3.12581362	         -6.18594100	          0.13362528	          0.10765859	          0.00000000	          0.05362262	          0.00000000	          0.00000000	          0.00000000	         -0.00000000	          0.00000000	          0.00000000	          0.00000000	          0.03687789	          0.00000000	          0.00000000	          0.00000000	          0.00000000	
          2.24100000	         -3.36657701	         -6.80858870	          0.15743193	          0.09867528	          0.00000000	          0.04917251	          0.00000000	          0.00000000	          0.00000000	         -0.00000000	          0.00000000	          0.00000000	          0.00000000	          0.03398951	          0.00000000	          0.00000000	          0.00000000	          0.00000000	
          2.24200000	         -3.57414819	         -7.35256823	          0.17861953	          0.09008291	          0.00000000	          0.04491496	          0.00000000	          0.00000000	          0.00000000	         -0.00000000	          0.00000000	          0.00000000	          0.00000000	          0.03121826	          0.00000000	          0.00000000	          0.00000000	          0.00000000	
          2.24300000	         -3.75056493	         -7.82251270	          0.19733072	          0.08188068	          0.00000000	          0.04084967	          0.00000000	          0.00000000	          0.00000000	         -0.00000000	          0.00000000	          0.00000000	          0.00000000	          0.02856468	          0.00000000	          0.00000000	          0.00000000	          0.00000000	
          2.24400000	         -3.89780947	         -8.22294109	          0.21370534	          0.07406644	          0.00000000	          0.03697568	          0.00000000	          0.00000000	          0.00000000	         -0.00000000	          0.00000000	          0.00000000	          0.00000000	          0.02602877	          0.00000000	          0.00000000	          0.00000000	          0.00000000	
          2.24500000	         -4.01780575	         -8.55825080	          0.22788018	          0.06663672	          0.00000000	          0.03329134	          0.00000000	          0.00000000	          0.00000000	         -0.00000000	          0.00000000	          0.00000000	          0.00000000	          0.02361012	          0.00000000	          0.00000000	          0.00000000	          0.00000000	
          2.24600000	         -4.11241710	         -8.83271144	          0.23998871	          0.05958690	          0.00000000	          0.02979446	          0.00000000	          0.00000000	          0.00000000	         -0.00000000	          0.00000000	          0.00000000	          0.00000000	          0.02130790	          0.00000000	          0.00000000	          0.00000000	          0.00000000	
          2.24700000	         -4.18344432	         -9.05045954	          0.25016086	          0.05291132	          0.00000000	          0.02648232	          0.00000000	          0.00000000	          0.00000000	         -0.00000000	          0.00000000	          0.00000000	          0.00000000	          0.01912090	          0.00000000	          0.00000000	          0.00000000	          0.00000000	
          2.24800000	         -4.23262426	         -9.21549420	          0.25852283	          0.04660339	          0.00000000	          0.02335171	          0.00000000	          0.00000000	          0.00000000	         -0.00000000	          0.00000000	          0.00000000	          0.00000000	          0.01704760	          0.00000000	          0.00000000	          0.00000000	          0.00000000	
          2.24900000	         -4.26162860	         -9.33167373	          0.26519693	          0.04065567	          0.00000000	          0.02039904	          0.00000000	          0.00000000	          0.00000000	         -0.00000000	          0.00000000	          0.00000000	          0.00000000	          0.01508616	          0.00000000	          0.00000000	          0.00000000	          0.00000000	
          2.25000000	         -4.27206318	         -9.40271296	          0.27030145	          0.03506003	          0.00000000	          0.01762034	          0.00000000	          0.00000000	          0.00000000	         -0.00000000	          0.00000000	          0.00000000	          0.00000000	          0.01323448	          0.00000000	          0.00000000	          0.00000000	          0.00000000	
          2.25100000	         -4.26546743	         -9.43218147	          0.27395057	          0.02980767	          0.00000000	          0.01501131	          0.00000000	          0.00000000	          0.00000000	         -0.00000000	          0.00000000	          0.00000000	          0.00000000	          0.01149023	          0.00000000	          0.00000000	          0.00000000	          0.00000000	
          2.25200000	         -4.24331427	         -9.42350243	          0.27625422	          0.02488926	          0.00000000	          0.01256739	          0.00000000	          0.00000000	          0.00000000	         -0.00000000	          0.00000000	          0.00000000	          0.00000000	          0.00985087	          0.00000000	          0.00000000	          0.00000000	          0.00000000	
          2.25300000	         -4.20701016	         -9.37995209	          0.27731811	          0.02029497	          0.00000000	          0.01028377	          0.00000000	          0.00000000	          0.00000000	         -0.00000000	          0.00000000	          0.00000000	          0.00000000	          0.00831366	          0.00000000	          0.00000000	          0.00000000	          0.00000000	
          2.25400000	         -4.15789547	         -9.30465993	          0.27724362	          0.01601462	          0.00000000	          0.00815545	          0.00000000	          0.00000000	          0.00000000	         -0.00000000	          0.00000000	          0.00000000	          0.00000000	          0.00687574	          0.00000000	          0.00000000	          0.00000000	          0.00000000	
          2.25500000	         -4.09724500	         -9.20060927	          0.27612782	          0.01203769	          0.00000000	          0.00617728	          0.00000000	          0.00000000	          0.00000000	         -0.00000000	          0.00000000	          0.00000000	          0.00000000	          0.00553410	          0.00000000	          0.00000000	          0.00000000	          0.00000000	
          2.25600000	         -4.02626874	         -9.07063848	          0.27406347	          0.00835341	          0.00000000	          0.00434395	          0.00000000	          0.00000000	          0.00000000	         -0.00000000	          0.00000000	          0.00000000	          0.00000000	          0.00428561	          0.00000000	          0.00000000	          0.00000000	          0.00000000	
